<?xml version="1.0" standalone="no"?>
<!DOCTYPE svg PUBLIC "-//W3C//DTD SVG 20010904//EN"
 "http://www.w3.org/TR/2001/REC-SVG-20010904/DTD/svg10.dtd">
<svg version="1.0" xmlns="http://www.w3.org/2000/svg"
 width="700.000000pt" height="700.000000pt" viewBox="0 0 700.000000 700.000000"
 preserveAspectRatio="xMidYMid meet">
<metadata>
Created by potrace 1.14, written by Peter Selinger 2001-2017
</metadata>
<g transform="translate(0.000000,700.000000) scale(0.100000,-0.100000)"
fill="#000000" stroke="none">
<path d="M3310 6359 c-85 -50 -173 -101 -195 -114 -22 -12 -416 -242 -875
-510 -459 -268 -856 -499 -881 -514 -307 -175 -563 -331 -575 -350 -22 -32
-20 -88 4 -120 15 -20 484 -305 632 -384 34 -18 567 -329 657 -383 40 -24 74
-44 77 -44 2 0 46 -25 97 -56 52 -31 112 -67 134 -79 22 -13 276 -161 564
-329 308 -180 534 -306 549 -306 29 0 55 14 406 220 108 63 207 121 219 127
12 7 483 282 1046 610 615 359 1032 608 1043 624 24 32 26 88 4 120 -11 19
-1833 1091 -2599 1531 -54 32 -94 47 -117 48 -26 0 -74 -23 -190 -91z m300
-212 c62 -33 275 -153 330 -188 14 -8 629 -366 712 -413 20 -12 309 -180 642
-375 l607 -354 -28 -19 c-23 -16 -197 -120 -340 -204 -122 -72 -197 -114 -204
-114 -5 0 -9 -4 -9 -10 0 -5 -4 -10 -9 -10 -5 0 -66 -34 -136 -75 -69 -41
-129 -75 -132 -75 -4 0 -14 -6 -22 -14 -9 -7 -36 -24 -61 -37 -25 -13 -52 -29
-60 -35 -8 -6 -35 -23 -60 -36 -25 -14 -198 -114 -385 -223 -187 -109 -349
-203 -360 -209 -11 -6 -31 -19 -45 -27 -14 -9 -111 -66 -215 -126 -105 -61
-206 -120 -225 -132 -19 -11 -52 -30 -73 -41 l-38 -21 -607 354 c-334 195
-623 364 -642 375 -19 12 -46 27 -60 35 -41 23 -88 50 -245 142 -82 49 -175
103 -205 120 -377 217 -641 378 -632 385 5 5 790 464 907 530 17 10 89 52 160
93 1329 777 1308 765 1335 754 14 -6 59 -29 100 -50z"/>
<path d="M824 3596 c-37 -16 -59 -64 -55 -118 3 -42 78 -93 448 -304 23 -13
428 -249 900 -525 472 -276 878 -513 903 -527 25 -14 133 -77 240 -141 251
-148 232 -147 435 -27 83 49 209 123 280 164 72 41 146 84 165 97 34 22 477
281 570 332 49 28 307 179 383 224 26 16 49 29 51 29 3 0 44 24 93 54 48 29
273 160 498 291 226 131 425 248 442 259 71 46 73 148 4 189 -39 23 -69 21
-122 -6 -36 -19 -476 -273 -529 -306 -15 -10 -320 -187 -353 -206 -70 -40
-807 -471 -827 -483 -14 -9 -34 -22 -45 -28 -11 -6 -187 -108 -391 -227 -204
-119 -382 -221 -395 -227 -22 -10 -78 21 -584 316 -308 180 -585 341 -615 359
-30 17 -359 209 -730 425 -398 233 -687 395 -705 397 -16 2 -44 -3 -61 -11z"/>
<path d="M833 2285 c-60 -26 -84 -103 -49 -156 11 -18 937 -568 1410 -838 22
-13 203 -118 401 -234 198 -115 378 -220 400 -233 22 -12 137 -79 255 -148
166 -97 223 -126 250 -126 28 0 134 57 525 285 270 157 497 289 505 294 8 6
65 39 125 74 61 35 218 127 350 204 132 77 393 229 580 338 580 338 620 363
634 387 40 75 -8 161 -91 161 -36 0 -65 -13 -173 -78 -71 -42 -148 -87 -170
-100 -22 -12 -91 -52 -153 -89 -62 -36 -132 -77 -155 -90 -23 -13 -130 -75
-237 -138 -107 -63 -215 -126 -240 -140 -25 -14 -173 -100 -329 -192 -156 -91
-285 -166 -286 -166 -2 0 -32 -17 -66 -39 -35 -21 -107 -63 -159 -93 -90 -52
-230 -134 -510 -298 -69 -40 -130 -73 -136 -73 -25 0 -231 113 -634 348 -234
137 -438 256 -455 265 -16 10 -232 136 -480 280 -247 145 -463 271 -480 280
-16 9 -136 79 -265 155 -229 134 -305 175 -325 174 -5 0 -24 -6 -42 -14z"/>
</g>
</svg>
