<?xml version="1.0" encoding="UTF-8" standalone="no"?>
<svg
   version="1.0"
   width="700.000000pt"
   height="700.000000pt"
   viewBox="0 0 700.000000 700.000000"
   preserveAspectRatio="xMidYMid meet"
   id="svg12"
   sodipodi:docname="logo.svg"
   inkscape:version="1.2.1 (9c6d41e, 2022-07-14)"
   xmlns:inkscape="http://www.inkscape.org/namespaces/inkscape"
   xmlns:sodipodi="http://sodipodi.sourceforge.net/DTD/sodipodi-0.dtd"
   xmlns="http://www.w3.org/2000/svg"
   xmlns:svg="http://www.w3.org/2000/svg">
  <defs
     id="defs16" />
  <sodipodi:namedview
     id="namedview14"
     pagecolor="#505050"
     bordercolor="#eeeeee"
     borderopacity="1"
     inkscape:showpageshadow="0"
     inkscape:pageopacity="0"
     inkscape:pagecheckerboard="0"
     inkscape:deskcolor="#505050"
     inkscape:document-units="pt"
     showgrid="false"
     inkscape:zoom="0.25285714"
     inkscape:cx="468.64407"
     inkscape:cy="468.64407"
     inkscape:window-width="1728"
     inkscape:window-height="1051"
     inkscape:window-x="0"
     inkscape:window-y="38"
     inkscape:window-maximized="0"
     inkscape:current-layer="svg12" />
  <metadata
     id="metadata2">
Created by potrace 1.14, written by Peter Selinger 2001-2017
</metadata>
  <g
     transform="translate(0.000000,700.000000) scale(0.100000,-0.100000)"
     fill="#000000"
     stroke="none"
     id="g10">
    <path
       d="M3310 6359 c-85 -50 -173 -101 -195 -114 -22 -12 -416 -242 -875 -510 -459 -268 -856 -499 -881 -514 -307 -175 -563 -331 -575 -350 -22 -32 -20 -88 4 -120 15 -20 484 -305 632 -384 34 -18 567 -329 657 -383 40 -24 74 -44 77 -44 2 0 46 -25 97 -56 52 -31 112 -67 134 -79 22 -13 276 -161 564 -329 308 -180 534 -306 549 -306 29 0 55 14 406 220 108 63 207 121 219 127 12 7 483 282 1046 610 615 359 1032 608 1043 624 24 32 26 88 4 120 -11 19 -1833 1091 -2599 1531 -54 32 -94 47 -117 48 -26 0 -74 -23 -190 -91z m300 -212 c62 -33 275 -153 330 -188 14 -8 629 -366 712 -413 20 -12 309 -180 642 -375 l607 -354 -28 -19 c-23 -16 -197 -120 -340 -204 -122 -72 -197 -114 -204 -114 -5 0 -9 -4 -9 -10 0 -5 -4 -10 -9 -10 -5 0 -66 -34 -136 -75 -69 -41 -129 -75 -132 -75 -4 0 -14 -6 -22 -14 -9 -7 -36 -24 -61 -37 -25 -13 -52 -29 -60 -35 -8 -6 -35 -23 -60 -36 -25 -14 -198 -114 -385 -223 -187 -109 -349 -203 -360 -209 -11 -6 -31 -19 -45 -27 -14 -9 -111 -66 -215 -126 -105 -61 -206 -120 -225 -132 -19 -11 -52 -30 -73 -41 l-38 -21 -607 354 c-334 195 -623 364 -642 375 -19 12 -46 27 -60 35 -41 23 -88 50 -245 142 -82 49 -175 103 -205 120 -377 217 -641 378 -632 385 5 5 790 464 907 530 17 10 89 52 160 93 1329 777 1308 765 1335 754 14 -6 59 -29 100 -50z"
       id="path4" />
    <path
       d="M824 3596 c-37 -16 -59 -64 -55 -118 3 -42 78 -93 448 -304 23 -13 428 -249 900 -525 472 -276 878 -513 903 -527 25 -14 133 -77 240 -141 251 -148 232 -147 435 -27 83 49 209 123 280 164 72 41 146 84 165 97 34 22 477 281 570 332 49 28 307 179 383 224 26 16 49 29 51 29 3 0 44 24 93 54 48 29 273 160 498 291 226 131 425 248 442 259 71 46 73 148 4 189 -39 23 -69 21 -122 -6 -36 -19 -476 -273 -529 -306 -15 -10 -320 -187 -353 -206 -70 -40 -807 -471 -827 -483 -14 -9 -34 -22 -45 -28 -11 -6 -187 -108 -391 -227 -204 -119 -382 -221 -395 -227 -22 -10 -78 21 -584 316 -308 180 -585 341 -615 359 -30 17 -359 209 -730 425 -398 233 -687 395 -705 397 -16 2 -44 -3 -61 -11z"
       id="path6" />
    <path
       d="M833 2285 c-60 -26 -84 -103 -49 -156 11 -18 937 -568 1410 -838 22 -13 203 -118 401 -234 198 -115 378 -220 400 -233 22 -12 137 -79 255 -148 166 -97 223 -126 250 -126 28 0 134 57 525 285 270 157 497 289 505 294 8 6 65 39 125 74 61 35 218 127 350 204 132 77 393 229 580 338 580 338 620 363 634 387 40 75 -8 161 -91 161 -36 0 -65 -13 -173 -78 -71 -42 -148 -87 -170 -100 -22 -12 -91 -52 -153 -89 -62 -36 -132 -77 -155 -90 -23 -13 -130 -75 -237 -138 -107 -63 -215 -126 -240 -140 -25 -14 -173 -100 -329 -192 -156 -91 -285 -166 -286 -166 -2 0 -32 -17 -66 -39 -35 -21 -107 -63 -159 -93 -90 -52 -230 -134 -510 -298 -69 -40 -130 -73 -136 -73 -25 0 -231 113 -634 348 -234 137 -438 256 -455 265 -16 10 -232 136 -480 280 -247 145 -463 271 -480 280 -16 9 -136 79 -265 155 -229 134 -305 175 -325 174 -5 0 -24 -6 -42 -14z"
       id="path8" />
  </g>
  <path
     style="fill:#f4ec0b;stroke-width:3.9548;fill-opacity:1"
     d="m 456.77966,503.55805 c -31.86741,-17.7013 -312.6841,-181.43884 -328.97549,-191.81781 -24.25689,-15.45365 -27.74726,-20.05595 -20.50376,-27.03569 10.11634,-9.74796 352.635,-207.585906 359.3954,-207.585906 9.86037,0 354.75866,201.774386 360.62035,210.972206 5.62147,8.8209 15.73398,2.31745 -194.5478,125.11593 -130.3858,76.14155 -163.86619,95.17229 -166.894,94.86504 -0.6518,-0.0661 -4.74442,-2.09735 -9.0947,-4.51377 z M 584.5787,412.95647 c 149.45138,-86.87942 202.42695,-118.74925 202.42695,-121.77901 0,-2.75294 -285.23031,-169.56438 -308.68856,-180.53054 l -14.05579,-6.57074 -47.24364,27.25387 c -156.66119,90.37455 -270.6113,157.70891 -270.64785,159.92876 -0.0973,5.90877 317.23504,189.59895 323.51964,187.27175 2.8601,-1.0591 54.47027,-30.56744 114.68925,-65.57409 z"
     id="path368"
     transform="scale(0.75)" />
  <path
     style="fill:#f4ec0b;fill-opacity:1;stroke-width:3.9548"
     d="M 333.90918,782.68753 C 167.40315,685.74014 102.82486,646.76007 102.82486,643.20283 c 0,-4.66174 9.03315,-12.41187 14.46664,-12.41187 2.73631,0 69.56258,37.60138 148.50282,83.55862 78.94024,45.95725 156.97562,90.80924 173.41196,99.67111 l 29.88425,16.11249 170.76329,-99.67111 c 93.9198,-54.81911 174.15862,-99.67111 178.30843,-99.67111 9.46266,0 14.32936,11.66469 7.54802,18.09142 -2.79885,2.65251 -62.92778,38.60075 -133.61987,79.88498 -199.77807,116.67055 -218.85388,127.44733 -225.5924,127.44733 -3.46872,0 -63.13369,-33.08723 -132.58882,-73.52716 z"
     id="path993"
     transform="scale(0.75)" />
  <path
     style="fill:#cfc909;fill-opacity:1;stroke-width:3.9548"
     d="M 289.48792,581.94032 C 195.30233,526.89806 114.63848,478.26058 110.23494,473.85704 c -7.4743,-7.47431 -7.56813,-8.44475 -1.41176,-14.60113 7.74096,-7.74095 -13.494929,-18.88088 193.71919,101.62132 78.30509,45.53713 147.73116,85.36217 154.28016,88.5001 11.857,5.68124 12.63892,5.27939 185.20031,-95.17923 95.31117,-55.4865 175.68394,-99.96707 178.60614,-98.84571 7.78903,2.98892 10.0138,11.6926 4.66438,18.24771 -6.47508,7.93443 -351.92122,208.62521 -358.90557,208.51018 -3.10933,-0.0512 -82.71427,-45.12769 -176.89987,-100.16996 z"
     id="path1721"
     transform="scale(0.75)" />
</svg>
